Coordinates
version=1
nRows=24
nColumns=38
inDegrees=no

Units are S.I. units (second, meters, Newtons, ...)
If the header above contains a line with 'inDegrees', this indicates whether rotational values are in degrees (yes) or radians (no).

endheader
time	pelvis_tilt	pelvis_list	pelvis_rotation	pelvis_tx	pelvis_ty	pelvis_tz	hip_flexion_r	hip_adduction_r	hip_rotation_r	knee_angle_r	ankle_angle_r	subtalar_angle_r	mtp_angle_r	hip_flexion_l	hip_adduction_l	hip_rotation_l	knee_angle_l	ankle_angle_l	subtalar_angle_l	mtp_angle_l	lumbar_extension	lumbar_bending	lumbar_rotation	arm_flex_r	arm_add_r	arm_rot_r	elbow_flex_r	pro_sup_r	wrist_flex_r	wrist_dev_r	arm_flex_l	arm_add_l	arm_rot_l	elbow_flex_l	pro_sup_l	wrist_flex_l	wrist_dev_l
15	0.40893	1.37965	0.811037	0.776243	-0.885558	0.959115	0.152173	0.108347	-0.231602	0.308611	0.219466	0	0	0.385892	-0.186582	-0.273582	0.0712388	0.0593767	0	0	-0.000308705	0.208268	0.214388	0.543725	-0.19626	0.361994	1.48399	1.5708	0	0	0.459373	-0.236287	-0.0407003	1.31503	0.766348	0	0
15.01	0.398756	1.37934	0.823231	0.77607	-0.888613	0.959494	0.158081	0.107539	-0.233669	0.310263	0.216614	0	0	0.390686	-0.18533	-0.274231	0.0734102	0.0558114	0	0	0.000878723	0.206787	0.213868	0.536603	-0.193068	0.354276	1.4904	1.5708	0	0	0.457562	-0.237213	-0.0390969	1.31823	0.78961	0	0
15.02	0.397693	1.38068	0.827207	0.775687	-0.891559	0.960073	0.160865	0.106981	-0.234896	0.310385	0.212963	0	0	0.391649	-0.183318	-0.271905	0.073468	0.0482572	0	0	-0.00102197	0.205677	0.212797	0.530959	-0.190153	0.347276	1.49622	1.5708	0	0	0.456159	-0.238014	-0.0401557	1.32307	0.791054	0	0
15.03	0.440079	1.38451	0.778479	0.776544	-0.893126	0.960716	0.152226	0.112648	-0.229609	0.308045	0.210976	0	0	0.378593	-0.187384	-0.235909	0.0728238	0.0425575	0	0	-0.00897081	0.210045	0.22101	0.524127	-0.189032	0.34297	1.50282	1.5708	0	0	0.451555	-0.239323	-0.0428603	1.33072	0.776869	0	0
15.04	0.433875	1.38584	0.785607	0.776321	-0.895635	0.961245	0.155666	0.111193	-0.230788	0.309449	0.209683	0	0	0.380328	-0.185687	-0.238833	0.0773899	0.0351685	0	0	-0.00944888	0.208774	0.221171	0.518242	-0.187706	0.339319	1.50791	1.5708	0	0	0.447832	-0.241128	-0.0451652	1.33927	0.779566	0	0
15.05	0.430162	1.38827	0.789597	0.776105	-0.89787	0.961829	0.157452	0.109135	-0.231909	0.310699	0.208229	0	0	0.379512	-0.183505	-0.241252	0.0812402	0.0284017	0	0	-0.0111702	0.206919	0.222958	0.510552	-0.185911	0.332537	1.51403	1.5708	0	0	0.444375	-0.242845	-0.0456645	1.34875	0.781972	0	0
15.06	0.428841	1.39056	0.792025	0.775736	-0.900019	0.962357	0.158928	0.107233	-0.23353	0.311932	0.20662	0	0	0.378701	-0.181435	-0.242046	0.086083	0.0239455	0	0	-0.0129291	0.205658	0.224063	0.502966	-0.184659	0.326033	1.51988	1.5708	0	0	0.441583	-0.244359	-0.045875	1.35723	0.783484	0	0
15.07	0.441309	1.3927	0.780463	0.77509	-0.902012	0.962737	0.158781	0.106843	-0.235273	0.313517	0.20507	0	0	0.375868	-0.180924	-0.240093	0.0911222	0.0226424	0	0	-0.0199081	0.20606	0.23678	0.490767	-0.18557	0.304418	1.53707	1.5708	0	0	0.447156	-0.240189	-0.0360188	1.36297	0.784472	0	0
15.08	0.423969	1.39375	0.798907	0.775085	-0.903729	0.963108	0.162498	0.104248	-0.236015	0.314076	0.203505	0	0	0.376382	-0.177501	-0.237034	0.0951954	0.0210258	0	0	-0.013709	0.203995	0.226357	0.485133	-0.183498	0.313023	1.53353	1.5708	0	0	0.434402	-0.248481	-0.0452006	1.37458	0.78647	0	0
15.09	0.421039	1.39506	0.802929	0.774704	-0.905338	0.963438	0.164189	0.102813	-0.236958	0.314929	0.20285	0	0	0.374799	-0.175544	-0.233821	0.0998018	0.0221749	0	0	-0.0134245	0.203782	0.226679	0.476434	-0.183794	0.30941	1.5406	1.5708	0	0	0.429132	-0.250728	-0.0469677	1.38321	0.787021	0	0
15.1	0.4192	1.39587	0.806143	0.77429	-0.906845	0.963676	0.165911	0.101767	-0.238358	0.315631	0.201936	0	0	0.373333	-0.173882	-0.229288	0.104334	0.0231128	0	0	-0.0125849	0.204227	0.226637	0.467689	-0.184585	0.306585	1.54809	1.5708	0	0	0.423928	-0.252921	-0.0487887	1.39066	0.787134	0	0
15.11	0.422736	1.39687	0.80419	0.773793	-0.908236	0.963914	0.166452	0.101163	-0.239648	0.315845	0.201121	0	0	0.370732	-0.172476	-0.223513	0.108627	0.0236928	0	0	-0.0125973	0.205191	0.22646	0.458631	-0.186056	0.303682	1.55655	1.5708	0	0	0.419169	-0.254629	-0.0506434	1.3977	0.787406	0	0
15.12	0.433311	1.39815	0.795763	0.773228	-0.90946	0.964189	0.16535	0.101191	-0.241277	0.315288	0.200608	0	0	0.366551	-0.171501	-0.216886	0.112381	0.0241213	0	0	-0.0138113	0.206819	0.226225	0.449151	-0.186809	0.298842	1.56575	1.5708	0	0	0.41487	-0.255978	-0.0514749	1.40495	0.787941	0	0
15.13	0.446029	1.39929	0.785214	0.772703	-0.910574	0.964471	0.163344	0.101995	-0.240972	0.313284	0.199781	0	0	0.362024	-0.171016	-0.211013	0.116453	0.0240779	0	0	-0.0148853	0.208974	0.225096	0.441023	-0.188335	0.297168	1.57335	1.5708	0	0	0.410049	-0.257388	-0.052835	1.41057	0.787601	0	0
15.14	0.472142	1.39855	0.761188	0.772134	-0.911608	0.96499	0.155305	0.107664	-0.237406	0.29874	0.19362	0	0	0.357163	-0.173848	-0.205524	0.121233	0.0236821	0	0	-0.016582	0.214505	0.224413	0.432892	-0.189343	0.294143	1.58012	1.5708	0	0	0.404745	-0.257565	-0.0544958	1.41484	0.787343	0	0
15.15	0.477463	1.39917	0.757733	0.771567	-0.91265	0.965081	0.155735	0.107297	-0.238226	0.299429	0.19418	0	0	0.353754	-0.173176	-0.20073	0.126667	0.0235401	0	0	-0.0162584	0.215844	0.223063	0.425353	-0.190106	0.292208	1.58694	1.5708	0	0	0.399447	-0.259221	-0.0556052	1.4202	0.788265	0	0
15.16	0.465485	1.40087	0.771171	0.770991	-0.913676	0.964693	0.16455	0.101364	-0.244222	0.315788	0.201907	0	0	0.352784	-0.169455	-0.194873	0.135015	0.0249875	0	0	-0.0141066	0.213799	0.2216	0.418114	-0.190436	0.290295	1.59436	1.5708	0	0	0.394296	-0.262066	-0.0561394	1.42732	0.788048	0	0
15.17	0.466295	1.40083	0.771799	0.770392	-0.914604	0.964556	0.167274	0.100009	-0.248006	0.319856	0.204786	0	0	0.352132	-0.168882	-0.189466	0.145474	0.0272957	0	0	-0.0126762	0.214986	0.220193	0.410995	-0.190753	0.288032	1.60188	1.5708	0	0	0.388591	-0.263447	-0.0579943	1.43442	0.787609	0	0
15.18	0.47129	1.401	0.768387	0.769822	-0.915479	0.964496	0.168383	0.0994738	-0.250319	0.321848	0.206661	0	0	0.351277	-0.168958	-0.18479	0.157757	0.0303643	0	0	-0.0121389	0.216361	0.218755	0.404208	-0.190633	0.285609	1.60919	1.5708	0	0	0.382782	-0.264543	-0.0607425	1.44166	0.787187	0	0
15.19	0.477319	1.40128	0.763809	0.769327	-0.916273	0.964488	0.168828	0.0991898	-0.252377	0.323048	0.207979	0	0	0.350564	-0.169362	-0.180391	0.171733	0.0342561	0	0	-0.0118081	0.217451	0.217042	0.397397	-0.191533	0.284916	1.6165	1.5708	0	0	0.376253	-0.265769	-0.0642938	1.44941	0.786969	0	0
15.2	0.48479	1.40176	0.757234	0.768882	-0.91699	0.964506	0.168659	0.0991663	-0.253603	0.323908	0.209115	0	0	0.349867	-0.170156	-0.176646	0.187574	0.0388833	0	0	-0.0120965	0.218439	0.215869	0.390503	-0.192308	0.284152	1.62389	1.5708	0	0	0.369406	-0.266769	-0.0677809	1.45734	0.786792	0	0
15.21	0.492462	1.40241	0.749904	0.768482	-0.917644	0.964539	0.16811	0.0992252	-0.254142	0.32451	0.210118	0	0	0.349294	-0.1711	-0.17336	0.205013	0.043967	0	0	-0.0126478	0.219238	0.215339	0.383412	-0.193153	0.283345	1.63138	1.5708	0	0	0.36282	-0.267339	-0.0704333	1.46415	0.78653	0	0
15.22	0.499771	1.40323	0.742478	0.768108	-0.918266	0.964597	0.167387	0.0992574	-0.253963	0.324853	0.211024	0	0	0.348938	-0.172089	-0.170767	0.223814	0.04905	0	0	-0.0133205	0.21972	0.215209	0.376271	-0.19405	0.282713	1.6385	1.5708	0	0	0.356651	-0.267589	-0.0720635	1.46989	0.786102	0	0
15.23	0.504103	1.40406	0.737496	0.767757	-0.918821	0.964656	0.167019	0.0989217	-0.253324	0.325241	0.212099	0	0	0.349046	-0.172942	-0.169253	0.24366	0.0544064	0	0	-0.0136416	0.219762	0.215371	0.368734	-0.194871	0.281699	1.64591	1.5708	0	0	0.350089	-0.267771	-0.0737224	1.47618	0.785622	0	0
